<svg xmlns="http://www.w3.org/2000/svg" viewBox="0 0 32 32" shape-rendering="crispEdges">
  <rect width="32" height="32" rx="5" fill="#07030f"/>
  <rect x="2" y="2" width="28" height="28" rx="3" fill="#160b2c"/>
  <g fill="#3f6212">
    <rect x="4" y="23" width="7" height="3"/><rect x="21" y="23" width="7" height="3"/>
    <rect x="7" y="20" width="5" height="3"/><rect x="20" y="20" width="5" height="3"/>
    <rect x="4" y="7" width="7" height="3"/><rect x="21" y="7" width="7" height="3"/>
    <rect x="7" y="10" width="5" height="3"/><rect x="20" y="10" width="5" height="3"/>
  </g>
  <g fill="#84f542">
    <rect x="9" y="6" width="14" height="3"/><rect x="7" y="9" width="18" height="9"/>
    <rect x="9" y="18" width="14" height="5"/><rect x="11" y="23" width="10" height="3"/>
  </g>
  <rect x="10" y="11" width="5" height="5" fill="#050207"/>
  <rect x="17" y="11" width="5" height="5" fill="#050207"/>
  <rect x="12" y="12" width="2" height="2" fill="#22d3ee"/>
  <rect x="18" y="12" width="2" height="2" fill="#ec4899"/>
  <rect x="15" y="16" width="2" height="3" fill="#050207"/>
  <rect x="12" y="21" width="2" height="4" fill="#050207"/>
  <rect x="15" y="21" width="2" height="4" fill="#050207"/>
  <rect x="18" y="21" width="2" height="4" fill="#050207"/>
</svg>